<svg xmlns="http://www.w3.org/2000/svg" viewBox="72 20 370 510">
  <path d="M92 860V300C92 171 197 66 326 66C455 66 560 171 560 300V860Z" transform="translate(-70 -40)" fill="#a899be" stroke="#cc004b" stroke-width="7"/>
  <g transform="translate(256 315)" fill="none" stroke="#111" stroke-width="8" stroke-linecap="round">
    <line x1="0" y1="-10" x2="0" y2="170"/>
    <path d="M0 -90 C -6 -52 -10 -22 -14 -5 C -10 5 -6 15 0 18 C 6 15 10 5 14 -5 C 10 -22 6 -52 0 -90Z" fill="#111" stroke="none"/>
    <path d="M0 10 C -18 20 -40 24 -58 14 C -71 7 -75 -11 -70 -29 C -64 -52 -44 -71 -44 -92 C -44 -104 -49 -113 -61 -120 C -39 -118 -21 -106 -16 -84 C -10 -58 -30 -43 -37 -23 C -41 -11 -39 0 -30 5 C -22 10 -10 9 0 7"/>
    <path d="M0 10 C 18 20 40 24 58 14 C 71 7 75 -11 70 -29 C 64 -52 44 -71 44 -92 C 44 -104 49 -113 61 -120 C 39 -118 21 -106 16 -84 C 10 -58 30 -43 37 -23 C 41 -11 39 0 30 5 C 22 10 10 9 0 7"/>
    <circle cx="0" cy="24" r="8" fill="#111" stroke="none"/>
    <circle cx="0" cy="40" r="8" fill="#111" stroke="none"/>
  </g>
</svg>
